<svg xmlns="http://www.w3.org/2000/svg" width="1220" height="760" viewBox="0 0 1220 760">
  <defs>
    <style>
      .title { font: 700 30px 'Microsoft YaHei', 'Noto Sans SC', sans-serif; fill: #111; }
      .center { fill: #fff; stroke: #111; stroke-width: 2.2; rx: 12; ry: 12; }
      .module { fill: #fff; stroke: #222; stroke-width: 1.8; rx: 10; ry: 10; }
      .header { font: 700 24px 'Microsoft YaHei', 'Noto Sans SC', sans-serif; fill: #111; }
      .label { font: 18px 'Microsoft YaHei', 'Noto Sans SC', sans-serif; fill: #111; }
      .small { font: 15px 'Microsoft YaHei', 'Noto Sans SC', sans-serif; fill: #111; }
      .line { stroke: #222; stroke-width: 1.8; fill: none; }
    </style>
  </defs>

  <text x="610" y="46" text-anchor="middle" class="title">图3-6 系统功能模块分解图</text>

  <rect x="430" y="298" width="360" height="104" class="center"/>
  <text x="610" y="338" text-anchor="middle" class="header">AI 智能穿搭系统</text>
  <text x="610" y="370" text-anchor="middle" class="small">需求分析阶段统一抽象出的六类功能模块</text>

  <rect x="110" y="132" width="240" height="70" class="module"/>
  <text x="230" y="175" text-anchor="middle" class="label">用户认证与资料管理</text>

  <rect x="490" y="132" width="240" height="70" class="module"/>
  <text x="610" y="175" text-anchor="middle" class="label">衣物管理与 AI 识别</text>

  <rect x="870" y="132" width="240" height="70" class="module"/>
  <text x="990" y="175" text-anchor="middle" class="label">风格偏好学习</text>

  <rect x="110" y="534" width="240" height="70" class="module"/>
  <text x="230" y="577" text-anchor="middle" class="label">首页推荐与搭配建议</text>

  <rect x="490" y="534" width="240" height="70" class="module"/>
  <text x="610" y="577" text-anchor="middle" class="label">AI 对话与知识检索</text>

  <rect x="870" y="534" width="240" height="70" class="module"/>
  <text x="990" y="577" text-anchor="middle" class="label">管理端功能</text>

  <line x1="610" y1="298" x2="610" y2="202" class="line"/>
  <line x1="610" y1="202" x2="230" y2="202" class="line"/>
  <line x1="610" y1="202" x2="610" y2="202" class="line"/>
  <line x1="610" y1="202" x2="990" y2="202" class="line"/>

  <line x1="230" y1="202" x2="230" y2="202" class="line"/>
  <line x1="610" y1="202" x2="610" y2="202" class="line"/>
  <line x1="990" y1="202" x2="990" y2="202" class="line"/>

  <line x1="230" y1="202" x2="230" y2="202" class="line"/>
  <line x1="230" y1="202" x2="230" y2="202" class="line"/>

  <line x1="230" y1="202" x2="230" y2="202" class="line"/>

  <line x1="230" y1="202" x2="230" y2="202" class="line"/>

  <line x1="230" y1="202" x2="230" y2="202" class="line"/>

  <line x1="230" y1="202" x2="230" y2="202" class="line"/>

  <line x1="610" y1="402" x2="610" y2="534" class="line"/>
  <line x1="610" y1="534" x2="230" y2="534" class="line"/>
  <line x1="610" y1="534" x2="990" y2="534" class="line"/>
</svg>
